<svg width="146" height="38" viewBox="0 0 146 38" fill="none" xmlns="http://www.w3.org/2000/svg">
<g filter="url(#filter0_dd_21_27253)">
<g clip-path="url(#clip0_21_27253)">
<rect x="3" y="2" width="32.2254" height="32" rx="8" fill="white"/>
<rect x="3" y="2" width="32.2254" height="32" rx="8" fill="url(#paint0_linear_21_27253)"/>
<path fill-rule="evenodd" clip-rule="evenodd" d="M19.1127 4.03885C11.3478 4.03885 5.05319 10.2895 5.05319 18C5.05319 25.7106 11.3478 31.9612 19.1127 31.9612C26.8775 31.9612 33.1722 25.7106 33.1722 18C33.1722 10.2895 26.8775 4.03885 19.1127 4.03885ZM4.97498 18C4.97498 10.2466 11.3046 3.96118 19.1127 3.96118C26.9207 3.96118 33.2504 10.2466 33.2504 18C33.2504 25.7535 26.9207 32.0389 19.1127 32.0389C11.3046 32.0389 4.97498 25.7535 4.97498 18Z" fill="#D0D5DD"/>
<path fill-rule="evenodd" clip-rule="evenodd" d="M19.1127 14.0779C16.9312 14.0779 15.1628 15.834 15.1628 18.0002C15.1628 20.1665 16.9312 21.9226 19.1127 21.9226C21.2942 21.9226 23.0627 20.1665 23.0627 18.0002C23.0627 15.834 21.2942 14.0779 19.1127 14.0779ZM15.0845 18.0002C15.0845 15.7911 16.888 14.0002 19.1127 14.0002C21.3374 14.0002 23.1409 15.7911 23.1409 18.0002C23.1409 20.2094 21.3374 22.0002 19.1127 22.0002C16.888 22.0002 15.0845 20.2094 15.0845 18.0002Z" fill="#D0D5DD"/>
<path fill-rule="evenodd" clip-rule="evenodd" d="M19.1127 15.3201C17.6223 15.3201 16.4142 16.5198 16.4142 17.9997C16.4142 19.4796 17.6223 20.6793 19.1127 20.6793C20.603 20.6793 21.8111 19.4796 21.8111 17.9997C21.8111 16.5198 20.603 15.3201 19.1127 15.3201ZM16.336 17.9997C16.336 16.4769 17.5791 15.2424 19.1127 15.2424C20.6462 15.2424 21.8894 16.4769 21.8894 17.9997C21.8894 19.5225 20.6462 20.757 19.1127 20.757C17.5791 20.757 16.336 19.5225 16.336 17.9997Z" fill="#D0D5DD"/>
<path d="M19.0735 2H19.1518V34H19.0735V2Z" fill="#D0D5DD"/>
<path d="M35.2253 17.9609L35.2253 18.0386L2.99999 18.0386L2.99999 17.9609L35.2253 17.9609Z" fill="#D0D5DD"/>
<path d="M29.7893 2H29.8675V34H29.7893V2Z" fill="#D0D5DD"/>
<path d="M13.7157 2H13.7939V34H13.7157V2Z" fill="#D0D5DD"/>
<path d="M24.4314 2H24.5096V34H24.4314V2Z" fill="#D0D5DD"/>
<path d="M8.35785 2H8.43607V34H8.35785V2Z" fill="#D0D5DD"/>
<path d="M35.2253 28.6016L35.2253 28.6792L2.99999 28.6792L2.99999 28.6016L35.2253 28.6016Z" fill="#D0D5DD"/>
<path d="M35.2253 12.6406L35.2253 12.7183L2.99999 12.7183L2.99999 12.6406L35.2253 12.6406Z" fill="#D0D5DD"/>
<path d="M35.2253 23.2812L35.2253 23.3589L2.99999 23.3589L2.99999 23.2812L35.2253 23.2812Z" fill="#D0D5DD"/>
<path d="M35.2253 7.32031L35.2253 7.39798L2.99999 7.39798L2.99999 7.32031L35.2253 7.32031Z" fill="#D0D5DD"/>
<g filter="url(#filter1_dd_21_27253)">
<ellipse cx="19.1127" cy="18" rx="8.05634" ry="8" fill="url(#paint1_linear_21_27253)"/>
</g>
<path d="M3 18H35.2254V21.2C35.2254 25.6804 35.2254 27.9206 34.3534 29.6319C33.5864 31.1372 32.3626 32.3611 30.8573 33.1281C29.146 34 26.9058 34 22.4254 34H15.8C11.3196 34 9.07937 34 7.36808 33.1281C5.86278 32.3611 4.63893 31.1372 3.87195 29.6319C3 27.9206 3 25.6804 3 21.2V18Z" fill="white" fill-opacity="0.2"/>
</g>
<rect x="3.1" y="2.1" width="32.0254" height="31.8" rx="7.9" stroke="#D0D5DD" stroke-width="0.2"/>
</g>
<path d="M54.7153 10.4535V19.8427C54.7153 21.8171 53.3421 23.2376 51.1106 23.2376C48.8862 23.2376 47.5058 21.8171 47.5058 19.8427V10.4535H45.2958V20.0202C45.2958 23.0742 47.5988 25.2404 51.1106 25.2404C54.6224 25.2404 56.9326 23.0742 56.9326 20.0202V10.4535H54.7153Z" fill="#101828"/>
<path d="M62.1126 18.5217C62.1126 16.7816 63.1854 15.7873 64.6731 15.7873C66.125 15.7873 67.0048 16.7319 67.0048 18.3157V24.9989H69.1433V18.06C69.1433 15.3612 67.6485 13.9478 65.4026 13.9478C63.7505 13.9478 62.6705 14.7077 62.1627 15.8654H62.0268V14.0898H59.9741V24.9989H62.1126V18.5217Z" fill="#101828"/>
<path d="M77.1396 14.0898H74.8866V11.4762H72.748V14.0898H71.1388V15.7944H72.748V22.2362C72.7409 24.2177 74.2643 25.1765 75.9523 25.141C76.6317 25.1339 77.0895 25.006 77.3398 24.9137L76.9536 23.1594C76.8106 23.1879 76.5459 23.2518 76.2026 23.2518C75.5088 23.2518 74.8866 23.0245 74.8866 21.7958V15.7944H77.1396V14.0898Z" fill="#101828"/>
<path d="M79.5052 24.9989H81.6437V14.0898H79.5052V24.9989ZM80.5852 12.4066C81.3219 12.4066 81.937 11.8384 81.937 11.1424C81.937 10.4464 81.3219 9.87109 80.5852 9.87109C79.8413 9.87109 79.2334 10.4464 79.2334 11.1424C79.2334 11.8384 79.8413 12.4066 80.5852 12.4066Z" fill="#101828"/>
<path d="M89.6489 14.0898H87.3959V11.4762H85.2574V14.0898H83.6481V15.7944H85.2574V22.2362C85.2503 24.2177 86.7737 25.1765 88.4616 25.141C89.1411 25.1339 89.5988 25.006 89.8492 24.9137L89.463 23.1594C89.3199 23.1879 89.0553 23.2518 88.712 23.2518C88.0182 23.2518 87.3959 23.0245 87.3959 21.7958V15.7944H89.6489V14.0898Z" fill="#101828"/>
<path d="M94.3891 10.4535H92.2506V24.9989H94.3891V10.4535Z" fill="#101828"/>
<path d="M102.001 25.2191C104.397 25.2191 106.092 24.0472 106.578 22.2717L104.554 21.9094C104.168 22.9393 103.238 23.4648 102.022 23.4648C100.191 23.4648 98.9612 22.2859 98.904 20.1836H106.714V19.4308C106.714 15.489 104.34 13.9478 101.851 13.9478C98.7895 13.9478 96.7726 16.2631 96.7726 19.6154C96.7726 23.0032 98.7609 25.2191 102.001 25.2191ZM98.9111 18.5927C98.997 17.0444 100.127 15.7021 101.865 15.7021C103.524 15.7021 104.611 16.9237 104.619 18.5927H98.9111Z" fill="#101828"/>
<path d="M113.2 25.212C115.202 25.212 115.989 23.9975 116.375 23.3015H116.554V24.9989H118.642V10.4535H116.504V15.8583H116.375C115.989 15.1836 115.259 13.9478 113.214 13.9478C110.56 13.9478 108.608 16.0288 108.608 19.5657C108.608 23.0955 110.532 25.212 113.2 25.212ZM113.672 23.4009C111.762 23.4009 110.768 21.7319 110.768 19.5444C110.768 17.3782 111.741 15.7518 113.672 15.7518C115.538 15.7518 116.54 17.2646 116.54 19.5444C116.54 21.8384 115.517 23.4009 113.672 23.4009Z" fill="#101828"/>
<path d="M136.616 10.4535V19.8427C136.616 21.8171 135.243 23.2376 133.011 23.2376C130.787 23.2376 129.407 21.8171 129.407 19.8427V10.4535H127.197V20.0202C127.197 23.0742 129.5 25.2404 133.011 25.2404C136.523 25.2404 138.833 23.0742 138.833 20.0202V10.4535H136.616Z" fill="#101828"/>
<path d="M144.257 10.4535H142.047V24.9989H144.257V10.4535Z" fill="#101828"/>
<defs>
<filter id="filter0_dd_21_27253" x="0" y="0" width="38.2253" height="38" filterUnits="userSpaceOnUse" color-interpolation-filters="sRGB">
<feFlood flood-opacity="0" result="BackgroundImageFix"/>
<feColorMatrix in="SourceAlpha" type="matrix" values="0 0 0 0 0 0 0 0 0 0 0 0 0 0 0 0 0 0 127 0" result="hardAlpha"/>
<feOffset dy="1"/>
<feGaussianBlur stdDeviation="1"/>
<feColorMatrix type="matrix" values="0 0 0 0 0.0627451 0 0 0 0 0.0941176 0 0 0 0 0.156863 0 0 0 0.06 0"/>
<feBlend mode="normal" in2="BackgroundImageFix" result="effect1_dropShadow_21_27253"/>
<feColorMatrix in="SourceAlpha" type="matrix" values="0 0 0 0 0 0 0 0 0 0 0 0 0 0 0 0 0 0 127 0" result="hardAlpha"/>
<feOffset dy="1"/>
<feGaussianBlur stdDeviation="1.5"/>
<feColorMatrix type="matrix" values="0 0 0 0 0.0627451 0 0 0 0 0.0941176 0 0 0 0 0.156863 0 0 0 0.1 0"/>
<feBlend mode="normal" in2="effect1_dropShadow_21_27253" result="effect2_dropShadow_21_27253"/>
<feBlend mode="normal" in="SourceGraphic" in2="effect2_dropShadow_21_27253" result="shape"/>
</filter>
<filter id="filter1_dd_21_27253" x="8.05634" y="8" width="22.1127" height="22" filterUnits="userSpaceOnUse" color-interpolation-filters="sRGB">
<feFlood flood-opacity="0" result="BackgroundImageFix"/>
<feColorMatrix in="SourceAlpha" type="matrix" values="0 0 0 0 0 0 0 0 0 0 0 0 0 0 0 0 0 0 127 0" result="hardAlpha"/>
<feOffset dy="1"/>
<feGaussianBlur stdDeviation="1"/>
<feColorMatrix type="matrix" values="0 0 0 0 0.0627451 0 0 0 0 0.0941176 0 0 0 0 0.156863 0 0 0 0.06 0"/>
<feBlend mode="normal" in2="BackgroundImageFix" result="effect1_dropShadow_21_27253"/>
<feColorMatrix in="SourceAlpha" type="matrix" values="0 0 0 0 0 0 0 0 0 0 0 0 0 0 0 0 0 0 127 0" result="hardAlpha"/>
<feOffset dy="1"/>
<feGaussianBlur stdDeviation="1.5"/>
<feColorMatrix type="matrix" values="0 0 0 0 0.0627451 0 0 0 0 0.0941176 0 0 0 0 0.156863 0 0 0 0.1 0"/>
<feBlend mode="normal" in2="effect1_dropShadow_21_27253" result="effect2_dropShadow_21_27253"/>
<feBlend mode="normal" in="SourceGraphic" in2="effect2_dropShadow_21_27253" result="shape"/>
</filter>
<linearGradient id="paint0_linear_21_27253" x1="19.1127" y1="2" x2="19.1127" y2="34" gradientUnits="userSpaceOnUse">
<stop stop-color="white"/>
<stop offset="1" stop-color="#D0D5DD"/>
</linearGradient>
<linearGradient id="paint1_linear_21_27253" x1="15.0845" y1="26" x2="23.0508" y2="9.95528" gradientUnits="userSpaceOnUse">
<stop stop-color="#53389E"/>
<stop offset="1" stop-color="#6941C6"/>
</linearGradient>
<clipPath id="clip0_21_27253">
<rect x="3" y="2" width="32.2254" height="32" rx="8" fill="white"/>
</clipPath>
</defs>
</svg>
